<?xml version="1.0" encoding="utf-8"?>
<svg viewBox="0 0 500 500" xmlns="http://www.w3.org/2000/svg" xmlns:bx="https://boxy-svg.com">
  <path d="M -76.601 -384.562 L -27.732 -305.391 L -125.47 -305.391 L -76.601 -384.562 Z" style="stroke: rgb(212, 139, 139); fill: rgb(225, 108, 117);" transform="matrix(-1, -0.000024, 0.000024, -1, 140.895798, -105.892136)" bx:shape="triangle -125.47 -384.562 97.738 79.171 0.5 0 1@53d82327"/>
  <path style="stroke: rgb(0, 0, 0); fill: rgb(255, 255, 255);" d="M 226.931 181.745 C 226.931 181.745 241.78472219335958 195.80944070144136 247.364 194.852 C 252.38758219619191 193.9899203136389 258.74827492167896 185.7983436499366 259.439 179.311 C 260.41213316073924 170.1712576784835 248.11793891052372 144.09727332937376 242.504 144.109 C 236.90308283820696 144.12069947015956 225.84707394789731 174.26162484797348 225.794 179.218 C 225.77983155662292 180.54113731085198 226.931 181.745 226.931 181.745 C 226.93100000000004 181.74500000000003 226.931 181.745 226.931 181.745 C 226.931 181.745 226.93099999999998 181.74499999999998 226.931 181.745" bx:d="M 226.931 181.745 R 247.364 194.852 R 259.439 179.311 R 242.504 144.109 R 225.794 179.218 R 226.931 181.745 R 226.931 181.745 Z 1@3d316870"/>
  <path stroke-width="0" d="M 238.773 153.88 C 239.345 153.007 240.531 153.205 241.102 154.268 C 242.696 157.232 242.696 182.503 241.102 184.936 C 240.531 185.808 239.345 185.61 238.773 184.547 C 237.179 181.584 237.179 156.312 238.773 153.88 Z" style="stroke-width: 2px; stroke: rgb(0, 0, 0);"/>
  <path style="stroke: rgb(0, 0, 0); fill: rgb(255, 255, 255);" d="M 181.99 155.472 C 181.99 155.472 196.84372219335958 141.40755929855868 202.423 142.365 C 207.4465821961919 143.22707968636112 213.8072749216789 151.41865635006343 214.498 157.906 C 215.4711331607392 167.04574232151657 203.17693891052363 193.11972667062628 197.563 193.108 C 191.96208283820698 193.09630052984045 180.90607394789737 162.95537515202645 180.853 157.999 C 180.83883155662292 156.67586268914806 181.99 155.472 181.99 155.472 C 181.99 155.47199999999998 181.99 155.472 181.99 155.472 C 181.99 155.472 181.98999999999998 155.472 181.99 155.472" transform="matrix(-1, 0, 0, -1, 395.405426, 335.426239)" bx:d="M 181.99 155.472 R 202.423 142.365 R 214.498 157.906 R 197.563 193.108 R 180.853 157.999 R 181.99 155.472 R 181.99 155.472 Z 1@fdd0cf48"/>
  <path stroke-width="0" d="M 199.244 183.145 C 199.816 184.018 201.002 183.82 201.573 182.757 C 203.167 179.793 203.167 154.522 201.573 152.089 C 201.002 151.217 199.816 151.415 199.244 152.478 C 197.65 155.441 197.65 180.713 199.244 183.145 Z" style="stroke-width: 2px; stroke: rgb(0, 0, 0);" transform="matrix(-1, 0, 0, -1, 400.816986, 335.234802)"/>
</svg>